<svg xmlns="http://www.w3.org/2000/svg" viewBox="0 0 335.47 256.71"><defs><style>.cls-1{fill:#6a3b00;}.cls-2{fill:#c1c134;}.cls-3{fill:#24aa00;}.cls-4{fill:#001503;}.cls-5{fill:none;stroke:#196a00;stroke-miterlimit:10;}</style></defs><title>tent</title><g id="Layer_2" data-name="Layer 2"><g id="Layer_2-2" data-name="Layer 2"><rect class="cls-1" x="5.24" y="228" width="4" height="29" transform="translate(-89.44 19.99) rotate(-21.77)"/><rect class="cls-1" x="5.24" y="176" width="4" height="29" transform="translate(-70.15 16.28) rotate(-21.77)"/><rect class="cls-1" x="321.24" y="228" width="4" height="29" transform="translate(533.45 587.6) rotate(-158.23)"/><rect class="cls-1" x="326.24" y="172" width="4" height="29" transform="translate(563.87 481.45) rotate(-158.23)"/><rect class="cls-2" x="-20.62" y="119.5" width="184.72" height="1" transform="translate(-62.26 80.1) rotate(-42.54)"/><rect class="cls-2" x="262.24" y="25.05" width="1" height="181.89" transform="translate(-0.39 231.12) rotate(-47.45)"/><g id="_Group_" data-name="&lt;Group&gt;"><path class="cls-3" d="M89.5,229c-.67.29-1.35.6-2,.95l-.44-.9c.83-.41,1.64-.78,2.44-1.11L88.9,229Z"/><path class="cls-3" d="M87.46,230H86.11L158,94.82l.27.14v0c-.07.78-.22,2.29-.42,4.37L89.46,227.94c-.8.33-1.61.7-2.44,1.11l.44.9Z"/><polygon class="cls-3" points="158.74 3.49 26.11 230 86.11 230 85.58 231 24.37 231 24.81 230.25 158.74 0.5 169.74 0.5 293.11 231 231.9 231 231.37 230 291.37 230 158.74 3.49"/><polygon class="cls-3" points="158.74 3.49 291.37 230 231.37 230 158.74 93.37 157.97 94.82 86.11 230 26.11 230 158.74 3.49"/><polygon class="cls-3" points="231.37 230 231.9 231 85.58 231 86.11 230 87.46 230 231.37 230"/><path class="cls-3" d="M158.74,93.37,231.37,230H87.46V230c.69-.35,1.37-.66,2-.95H228.58L159.24,98.57V95h-.5l-.5,0-.27-.14Z"/><polygon class="cls-3" points="159.24 98.57 228.58 229 159.24 229 159.24 98.57"/><path class="cls-3" d="M159.24,98.57V229h-1V105.09c.3-2.87.54-5.26.71-7.06Z"/><path class="cls-3" d="M159.24,95v3.53l-.29-.54C159.09,96.66,159.19,95.65,159.24,95Z"/><polygon class="cls-3" points="159.24 95 159.24 95.04 158.74 95 159.24 95"/><path class="cls-3" d="M158.74,95l.5,0c-.05.61-.15,1.62-.29,3l-.21-.4-.5.94V95Z"/><path class="cls-3" d="M158.74,97.63l.21.4c-.17,1.8-.41,4.19-.71,7.06V98.57Z"/><path class="cls-3" d="M158.74,95h-.5v0Z"/><path class="cls-4" d="M158.24,105.09V229H134.1v-.33a7.42,7.42,0,0,0,6.77-3.71c1.27-2,2.66-12.43,4.09-23.87.43-3.47.81-6.46,1-7C150.2,178.72,155.91,127.53,158.24,105.09Z"/><path class="cls-3" d="M158.24,98.57v6.52c-2.33,22.44-8,73.63-12.32,89-.15.54-.53,3.53-1,7-1.43,11.44-2.82,21.87-4.09,23.87a7.42,7.42,0,0,1-6.77,3.71,28.4,28.4,0,0,1-7.44-1.44c-3.28-.94-6.67-1.91-9.34-1.09-2.89.87-6,.7-9.58.5-5.29-.29-11.21-.62-18.24,2.36h-.6l.56-1.06c7.12-2.91,13.28-2.58,18.33-2.29,3.5.19,6.51.36,9.24-.47,3-.9,6.49.11,9.91,1.08,5.19,1.49,10.1,2.89,13.09-1.83,1.25-2,2.93-15.43,3.94-23.46.52-4.18.82-6.57,1-7.15,4.58-16.48,11.07-76.64,12.86-94.45Z"/><path class="cls-3" d="M158.24,95v3.57l-.42.8C158,97.29,158.17,95.78,158.24,95Z"/><path class="cls-3" d="M89.46,227.94,157.82,99.37c-1.79,17.81-8.28,78-12.86,94.45-.17.58-.47,3-1,7.15-1,8-2.69,21.48-3.94,23.46-3,4.72-7.9,3.32-13.09,1.83-3.42-1-7-2-9.91-1.08-2.73.83-5.74.66-9.24.47C102.74,225.36,96.58,225,89.46,227.94Z"/><path class="cls-4" d="M134.1,228.67V229H89.5c7-3,12.95-2.65,18.24-2.36,3.59.2,6.69.37,9.58-.5,2.67-.82,6.06.15,9.34,1.09A28.4,28.4,0,0,0,134.1,228.67Z"/><path class="cls-5" d="M158.24,105.09c-2.33,22.44-8,73.63-12.32,89-.15.54-.53,3.53-1,7-1.43,11.44-2.82,21.87-4.09,23.87a7.42,7.42,0,0,1-6.77,3.71,28.4,28.4,0,0,1-7.44-1.44c-3.28-.94-6.67-1.91-9.34-1.09-2.89.87-6,.7-9.58.5-5.29-.29-11.21-.62-18.24,2.36"/><path class="cls-5" d="M89.46,227.94c7.12-2.91,13.28-2.58,18.33-2.29,3.5.19,6.51.36,9.24-.47,3-.9,6.49.11,9.91,1.08,5.19,1.49,10.1,2.89,13.09-1.83,1.25-2,2.93-15.43,3.94-23.46.52-4.18.82-6.57,1-7.15,4.58-16.48,11.07-76.64,12.86-94.45"/><polyline class="cls-5" points="85.58 231 24.37 231 24.81 230.25 158.74 0.5 169.74 0.5 293.11 231 231.9 231"/><polyline class="cls-5" points="231.37 230 291.37 230 158.74 3.49 26.11 230 86.11 230"/><polygon class="cls-5" points="231.9 231 85.58 231 86.11 230 157.97 94.82 158.74 93.37 231.37 230 231.9 231"/><polyline class="cls-5" points="158.24 98.57 157.82 99.37 89.46 227.94 88.9 229 89.5 229 134.1 229 158.24 229"/><polyline class="cls-5" points="159.24 229 228.58 229 159.24 98.57"/><polygon class="cls-5" points="159.24 229 158.24 229 158.24 105.09 158.24 98.57 158.24 95 158.74 95 159.24 95 159.24 95.04 159.24 98.57 159.24 229"/></g><polygon class="cls-3" points="169.74 1.5 161.01 1.5 154.24 14 163.98 14 169.74 1.5"/><rect class="cls-2" x="-29.76" y="162" width="183.99" height="1" transform="translate(-102.71 107.06) rotate(-50.47)"/><rect class="cls-2" x="270.74" y="74.6" width="1" height="177.8" transform="matrix(0.8, -0.6, 0.6, 0.8, -43.78, 196.15)"/><g id="_Group_2" data-name="&lt;Group&gt;"><polygon class="cls-3" points="170.17 2.25 304.11 231 242.9 231 242.37 230 302.37 230 169.74 3.49 37.11 230 97.11 230 96.58 231 35.37 231 35.81 230.25 169.74 1.51 170.17 2.25"/><polygon class="cls-3" points="169.74 3.49 302.37 230 242.37 230 169.74 93.37 168.97 94.82 97.11 230 37.11 230 169.74 3.49"/><polygon class="cls-3" points="242.37 230 242.9 231 96.58 231 97.11 230 98.46 230 242.37 230"/><path class="cls-3" d="M169.74,93.37,242.37,230H98.46V230c.69-.35,1.37-.66,2-.95H239.58L170.24,98.57V95h-.5l-.5,0-.27-.14Z"/><polygon class="cls-3" points="170.24 98.57 239.58 229 170.24 229 170.24 98.57"/><path class="cls-3" d="M170.24,98.57V229h-1V105.09c.3-2.87.54-5.26.71-7.06Z"/><path class="cls-3" d="M170.24,95v3.53l-.29-.54C170.09,96.66,170.19,95.65,170.24,95Z"/><polygon class="cls-3" points="170.24 95 170.24 95.04 169.74 95 170.24 95"/><path class="cls-3" d="M169.74,95l.5,0c-.05.61-.15,1.62-.29,3l-.21-.4-.5.94V95Z"/><path class="cls-3" d="M169.74,97.63l.21.4c-.17,1.8-.41,4.19-.71,7.06V98.57Z"/><path class="cls-3" d="M169.74,95h-.5v0Z"/><path class="cls-4" d="M169.24,105.09V229H145.1v-.33a7.42,7.42,0,0,0,6.77-3.71c1.27-2,2.66-12.43,4.09-23.87.43-3.47.81-6.46,1-7C161.2,178.72,166.91,127.53,169.24,105.09Z"/><path class="cls-3" d="M169.24,98.57v6.52c-2.33,22.44-8,73.63-12.32,89-.15.54-.53,3.53-1,7-1.43,11.44-2.82,21.87-4.09,23.87a7.42,7.42,0,0,1-6.77,3.71,28.4,28.4,0,0,1-7.44-1.44c-3.28-.94-6.67-1.91-9.34-1.09-2.89.87-6,.7-9.58.5-5.29-.29-11.21-.62-18.24,2.36h-.6l.56-1.06c7.12-2.91,13.28-2.58,18.33-2.29,3.5.19,6.51.36,9.24-.47,2.95-.9,6.49.11,9.91,1.08,5.19,1.49,10.1,2.89,13.09-1.83,1.25-2,2.93-15.43,3.94-23.46.52-4.18.82-6.57,1-7.15,4.58-16.48,11.07-76.64,12.86-94.45Z"/><path class="cls-3" d="M169.24,95v3.57l-.42.8C169,97.29,169.17,95.78,169.24,95Z"/><path class="cls-3" d="M169.24,95v0c-.07.78-.22,2.29-.42,4.37L100.46,227.94c-.8.33-1.61.69-2.44,1.11l.44.9V230H97.11L169,94.82Z"/><path class="cls-3" d="M100.46,227.94,168.82,99.37c-1.79,17.81-8.28,78-12.86,94.45-.17.58-.47,3-1,7.15-1,8-2.69,21.48-3.94,23.46-3,4.72-7.9,3.32-13.09,1.83-3.42-1-7-2-9.91-1.08-2.73.83-5.74.66-9.24.47C113.74,225.36,107.58,225,100.46,227.94Z"/><path class="cls-4" d="M145.1,228.67V229H100.5c7-3,13-2.65,18.24-2.36,3.59.2,6.69.37,9.58-.5,2.67-.82,6.06.15,9.34,1.09A28.4,28.4,0,0,0,145.1,228.67Z"/><path class="cls-3" d="M99.9,229h.6c-.67.29-1.35.6-2,.95l-.44-.9c.83-.42,1.64-.78,2.44-1.11Z"/><path class="cls-5" d="M169.24,105.09c-2.33,22.44-8,73.63-12.32,89-.15.54-.53,3.53-1,7-1.43,11.44-2.82,21.87-4.09,23.87a7.42,7.42,0,0,1-6.77,3.71,28.4,28.4,0,0,1-7.44-1.44c-3.28-.94-6.67-1.91-9.34-1.09-2.89.87-6,.7-9.58.5-5.29-.29-11.21-.62-18.24,2.36"/><path class="cls-5" d="M100.46,227.94c7.12-2.91,13.28-2.58,18.33-2.29,3.5.19,6.51.36,9.24-.47,2.95-.9,6.49.11,9.91,1.08,5.19,1.49,10.1,2.89,13.09-1.83,1.25-2,2.93-15.43,3.94-23.46.52-4.18.82-6.57,1-7.15,4.58-16.48,11.07-76.64,12.86-94.45"/><polyline class="cls-5" points="96.58 231 35.37 231 35.81 230.25 169.74 1.51 170.17 2.25 304.11 231 242.9 231"/><polyline class="cls-5" points="242.37 230 302.37 230 169.74 3.49 37.11 230 97.11 230"/><polygon class="cls-5" points="242.9 231 96.58 231 97.11 230 168.97 94.82 169.74 93.37 242.37 230 242.9 231"/><polyline class="cls-5" points="169.24 98.57 168.82 99.37 100.46 227.94 99.9 229 100.5 229 145.1 229 169.24 229"/><polyline class="cls-5" points="170.24 229 239.58 229 170.24 98.57"/><polygon class="cls-5" points="170.24 229 169.24 229 169.24 105.09 169.24 98.57 169.24 95 169.74 95 170.24 95 170.24 95.04 170.24 98.57 170.24 229"/></g></g></g></svg>